<svg xmlns="http://www.w3.org/2000/svg" width="64" height="64" viewBox="0 0 64 64" fill="none" style="width:64px;height:64px;max-width:64px;">
  <circle cx="32" cy="32" r="30" fill="#1C1C1C" stroke="#C8A96E" stroke-width="2"/>
  <path d="M20 44 L38 26 C40 22 45 21 48 24 C51 27 50 32 46 34 L44 36 L40 32 L42 30 C43 29 43 27 42 26 C41 25 39 25 38 26 L20 44 C19 45 18 45 18 44 C17 43 18 42 19 41 Z" fill="#C8A96E"/>
  <polygon points="24,38 20,34 20,28 24,24 30,24 34,28 34,34 30,38" fill="none" stroke="#C8A96E" stroke-width="2" stroke-linejoin="round"/>
  <circle cx="27" cy="31" r="3" fill="none" stroke="#C8A96E" stroke-width="1.5"/>
</svg>